<svg width="142" height="26" viewBox="0 0 142 26" fill="none" xmlns="http://www.w3.org/2000/svg">
<path d="M78.7252 25.5404C77.3177 25.5404 75.9756 25.5404 74.4371 25.5404C74.4371 19.4015 74.4371 13.394 74.4371 7.35355C74.3061 7.32072 74.1752 7.2879 74.077 7.25507C73.7169 7.87881 73.2914 8.46972 72.964 9.09345C71.6219 11.4899 70.1489 13.7879 69.0687 16.2828C68.2503 18.2197 66.8755 18.3182 65.2716 18.0556C64.8133 17.9899 64.3223 17.4318 64.0604 16.9722C62.2273 13.7551 60.4269 10.5051 58.2665 7.32072C58.2665 13.3611 58.2665 19.4015 58.2665 25.5404C56.6952 25.5404 55.3532 25.5404 53.8801 25.5404C53.8801 17.2677 53.8801 8.99497 53.8801 0.525269C55.3859 0.525269 56.8589 0.393956 58.2992 0.590926C58.8557 0.656582 59.4776 1.31315 59.805 1.8384C61.8017 5.15406 63.7331 8.50254 65.6971 11.851C65.8608 12.1137 66.0572 12.3763 66.3845 12.8359C68.1194 9.88133 69.7561 7.0581 71.3928 4.23487C73.6187 0.393956 73.6187 0.393956 78.0051 0.558097C78.2015 0.558097 78.4306 0.623754 78.758 0.656582C78.7252 8.86365 78.7252 17.1036 78.7252 25.5404Z" fill="black"/>
<path d="M87.8252 25.6061C87.8252 17.1692 87.8252 8.96212 87.8252 0.82071C87.9561 0.722225 88.0216 0.590912 88.1198 0.590912C92.408 0.656568 96.7288 0.525255 100.984 0.886366C105.272 1.24748 107.564 6.07324 105.469 9.88132C105.011 10.702 104.061 11.2601 103.341 11.9167C106.811 13.9192 107.957 16.8081 106.844 20.9444C106.189 23.3737 104.127 25.1136 101.344 25.3106C98.1364 25.5076 94.9285 25.5732 91.7205 25.6389C90.4767 25.6389 89.2328 25.6061 87.8252 25.6061ZM92.6044 22.1591C95.1249 22.1591 97.5145 22.2576 99.904 22.1263C101.082 22.0606 102.064 21.3056 102.195 19.9596C102.294 18.745 102.326 17.4975 102.261 16.25C102.163 14.5429 101.017 13.6566 99.5112 13.5253C97.2526 13.3611 94.9939 13.4924 92.6371 13.4924C92.6044 16.4141 92.6044 19.1717 92.6044 22.1591ZM92.6371 10.6692C94.7321 10.6692 96.6961 10.7349 98.6601 10.6364C100.264 10.5707 101.082 9.68435 101.213 8.0101C101.443 5.41667 101.017 4.16919 99.3476 3.90657C97.1871 3.57829 94.9612 3.57829 92.6371 3.44697C92.6371 6.00758 92.6371 8.2399 92.6371 10.6692Z" fill="black"/>
<path d="M40.4592 0.590912C42.0632 0.590912 43.4708 0.590912 44.9438 0.590912C45.0093 0.952023 45.1075 1.31313 45.1075 1.67425C45.1075 7.28788 45.1402 12.9343 45.042 18.548C44.9765 22.3232 43.3071 24.4571 39.7064 25.4091C36.433 26.2626 33.1596 26.197 29.9189 25.3106C26.5146 24.3586 24.7469 22.3889 24.6487 18.9091C24.4851 12.8687 24.616 6.79546 24.616 0.62374C26.1872 0.62374 27.6275 0.62374 29.2642 0.62374C29.2969 1.14899 29.3297 1.7399 29.3297 2.33081C29.3297 7.25505 29.3297 12.1793 29.3297 17.0707C29.3297 20.9116 30.4754 22.1263 34.3707 22.2247C35.5164 22.2576 36.6621 22.1919 37.775 21.9621C39.4445 21.6338 40.2956 20.4848 40.2956 18.8106C40.361 13.3611 40.3938 7.87879 40.4265 2.4293C40.4592 1.83839 40.4592 1.24748 40.4592 0.590912Z" fill="black"/>
<path d="M0 24.3914C0.392808 23.2096 0.720148 22.1919 0.982019 21.404C3.20793 21.6667 5.2047 22.0606 7.23421 22.1591C9.82019 22.2904 11.3587 20.8131 11.4242 18.2197C11.5224 13.8535 11.4569 9.45455 11.4896 5.08839C11.4896 4.03788 10.8677 3.97223 10.0821 3.97223C7.69248 3.97223 5.3029 3.97223 2.78239 3.97223C2.78239 2.82324 2.78239 1.77273 2.78239 0.590912C7.20148 0.590912 11.5878 0.590912 15.9742 0.590912C16.0396 0.689397 16.1706 0.755053 16.1706 0.853538C16.2033 6.82829 16.3343 12.7702 16.1706 18.745C16.0724 22.8813 13.5519 25.3106 9.03458 25.8687C6.02305 26.2298 2.97879 25.803 0 24.3914Z" fill="black"/>
<path d="M115.289 24.8182C115.289 23.6692 115.289 22.5859 115.322 21.5025C115.322 21.3712 115.518 21.1743 115.682 21.0758C117.613 19.7955 119.512 18.5152 121.443 17.2349C123.734 15.6919 126.059 14.1818 128.35 12.6389C128.579 12.5076 128.71 12.4748 128.939 12.6061C133.162 15.4293 137.417 18.2525 141.64 21.0758C141.902 21.2399 142 21.4369 142 21.7652C141.967 22.75 142 23.7349 142 24.8182C141.771 24.6869 141.64 24.5884 141.476 24.4571C137.384 21.7323 133.325 19.0404 129.266 16.3157C128.841 16.0202 128.579 16.0202 128.121 16.3157C123.996 19.1061 119.839 21.8637 115.682 24.6212C115.551 24.6869 115.453 24.7197 115.289 24.8182Z" fill="black"/>
<path d="M115.289 18.4495C115.289 17.3005 115.289 16.2172 115.322 15.1338C115.322 15.0025 115.518 14.8056 115.682 14.7071C117.613 13.4268 119.512 12.1465 121.443 10.8662C123.734 9.32323 126.059 7.81313 128.35 6.2702C128.579 6.13889 128.71 6.10606 128.939 6.23737C133.162 9.0606 137.417 11.8838 141.64 14.7071C141.902 14.8712 142 15.0682 142 15.3965C141.967 16.3813 142 17.3662 142 18.4495C141.771 18.3182 141.64 18.2197 141.476 18.0884C137.384 15.3636 133.325 12.6717 129.266 9.94697C128.841 9.65151 128.579 9.65151 128.121 9.94697C123.996 12.7374 119.839 15.4949 115.682 18.2525C115.551 18.3182 115.453 18.351 115.289 18.4495Z" fill="black"/>
<path d="M115.289 12.3101C115.289 11.1611 115.289 10.0777 115.322 8.9944C115.322 8.86309 115.518 8.66612 115.682 8.56763C117.613 7.28733 119.512 6.00703 121.443 4.72672C123.734 3.1838 126.059 1.67369 128.35 0.130765C128.579 -0.000547726 128.71 -0.033376 128.939 0.0979371C133.162 2.92117 137.417 5.7444 141.64 8.56763C141.902 8.73178 142 8.92875 142 9.25703C141.967 10.2419 142 11.2267 142 12.3101C141.771 12.1787 141.64 12.0803 141.476 11.9489C137.384 9.2242 133.325 6.53228 129.266 3.80753C128.841 3.51208 128.579 3.51208 128.121 3.80753C123.996 6.59794 119.839 9.35551 115.682 12.1131C115.551 12.1459 115.453 12.2116 115.289 12.3101Z" fill="black"/>
<path d="M137.024 0H139.774V5.15404L137.024 3.28283V0Z" fill="black"/>
</svg>
